REM DIRINDEX 1\2\6,1\2\7,1\2\8,1\2\9,1\3\10,1\3\11,1\4\12,1\4\13,1\4\14,1\5\15,1\5\16,1\5\17
REM DIRNAME folder01,folder02,folder03,folder04,folder05,folder06,folder07,folder08,folder09,folder10,folder11,folder12,folder13,folder14,folder15,folder16,folder17
TITLE ""
FILE "1900_3_016 sec03_0247_0262.mp3" MP3
  TRACK 01 AUDIO
    TITLE "0:"
    INDEX 01 00:00:00
  TRACK 02 AUDIO
    TITLE "17:cjc020_6462"
    INDEX 01 00:00:17
  TRACK 03 AUDIO
    TITLE "0:"
    INDEX 01 00:01:32
  TRACK 04 AUDIO
    TITLE "16:cjc020_6463"
    INDEX 01 00:01:34
  TRACK 05 AUDIO
    TITLE "0:"
    INDEX 01 00:02:43
  TRACK 06 AUDIO
    TITLE "17:cjc020_6464"
    INDEX 01 00:03:27
  TRACK 07 AUDIO
    TITLE "0:"
    INDEX 01 00:05:36
  TRACK 08 AUDIO
    TITLE "16:cjc020_6465"
    INDEX 01 00:05:46
  TRACK 09 AUDIO
    TITLE "0:"
    INDEX 01 00:06:67
  TRACK 10 AUDIO
    TITLE "17:cjc020_6466"
    INDEX 01 00:07:51
  TRACK 11 AUDIO
    TITLE "0:"
    INDEX 01 00:08:60
  TRACK 12 AUDIO
    TITLE "16:cjc020_6467"
    INDEX 01 00:08:68
  TRACK 13 AUDIO
    TITLE "0:"
    INDEX 01 00:10:23
  TRACK 14 AUDIO
    TITLE "17:cjc020_6468"
    INDEX 01 00:11:09
  TRACK 15 AUDIO
    TITLE "0:"
    INDEX 01 00:12:26
  TRACK 16 AUDIO
    TITLE "16:cjc020_6469"
    INDEX 01 00:12:28
  TRACK 17 AUDIO
    TITLE "0:"
    INDEX 01 00:13:24
  TRACK 18 AUDIO
    TITLE "17:cjc020_6470"
    INDEX 01 00:14:19
  TRACK 19 AUDIO
    TITLE "0:"
    INDEX 01 00:16:06
  TRACK 20 AUDIO
    TITLE "16:cjc020_6471"
    INDEX 01 00:16:12
  TRACK 21 AUDIO
    TITLE "0:"
    INDEX 01 00:17:23
  TRACK 22 AUDIO
    TITLE "17:cjc020_6472"
    INDEX 01 00:18:05
  TRACK 23 AUDIO
    TITLE "0:"
    INDEX 01 00:19:01
  TRACK 24 AUDIO
    TITLE "16:cjc020_6473"
    INDEX 01 00:19:07
  TRACK 25 AUDIO
    TITLE "0:"
    INDEX 01 00:20:14
  TRACK 26 AUDIO
    TITLE "17:cjc020_6474"
    INDEX 01 00:21:00
  TRACK 27 AUDIO
    TITLE "0:"
    INDEX 01 00:22:05
  TRACK 28 AUDIO
    TITLE "16:cjc020_6475"
    INDEX 01 00:22:11
  TRACK 29 AUDIO
    TITLE "0:"
    INDEX 01 00:23:16
  TRACK 30 AUDIO
    TITLE "17:cjc020_6476"
    INDEX 01 00:24:00
  TRACK 31 AUDIO
    TITLE "0:"
    INDEX 01 00:24:74
  TRACK 32 AUDIO
    TITLE "16:cjc020_6477"
    INDEX 01 00:25:07
  TRACK 33 AUDIO
    TITLE "0:"
    INDEX 01 00:26:26
  TRACK 34 AUDIO
    TITLE "17:cjc020_6478"
    INDEX 01 00:27:08
  TRACK 35 AUDIO
    TITLE "0:"
    INDEX 01 00:28:19
  TRACK 36 AUDIO
    TITLE "16:cjc020_6479"
    INDEX 01 00:28:29
  TRACK 37 AUDIO
    TITLE "0:"
    INDEX 01 00:29:27
  TRACK 38 AUDIO
    TITLE "17:cjc020_6480"
    INDEX 01 00:30:12
  TRACK 39 AUDIO
    TITLE "0:"
    INDEX 01 00:31:27
  TRACK 40 AUDIO
    TITLE "16:cjc020_6481"
    INDEX 01 00:31:37
  TRACK 41 AUDIO
    TITLE "0:"
    INDEX 01 00:32:58
  TRACK 42 AUDIO
    TITLE "17:cjc020_6482"
    INDEX 01 00:33:40
  TRACK 43 AUDIO
    TITLE "0:"
    INDEX 01 00:35:74
  TRACK 44 AUDIO
    TITLE "16:cjc020_6483"
    INDEX 01 00:36:03
  TRACK 45 AUDIO
    TITLE "0:"
    INDEX 01 00:37:20
  TRACK 46 AUDIO
    TITLE "17:cjc020_6484"
    INDEX 01 00:38:02
  TRACK 47 AUDIO
    TITLE "0:"
    INDEX 01 00:40:17
  TRACK 48 AUDIO
    TITLE "16:cjc020_6485"
    INDEX 01 00:40:23
  TRACK 49 AUDIO
    TITLE "0:"
    INDEX 01 00:41:53
  TRACK 50 AUDIO
    TITLE "17:cjc020_6486"
    INDEX 01 00:42:37
  TRACK 51 AUDIO
    TITLE "0:"
    INDEX 01 00:43:44
  TRACK 52 AUDIO
    TITLE "16:cjc020_6487"
    INDEX 01 00:43:48
  TRACK 53 AUDIO
    TITLE "0:"
    INDEX 01 00:44:46
  TRACK 54 AUDIO
    TITLE "17:cjc020_6488"
    INDEX 01 00:45:30
  TRACK 55 AUDIO
    TITLE "0:"
    INDEX 01 00:46:39
  TRACK 56 AUDIO
    TITLE "16:cjc020_6489"
    INDEX 01 00:46:45
  TRACK 57 AUDIO
    TITLE "0:"
    INDEX 01 00:47:52
  TRACK 58 AUDIO
    TITLE "17:cjc020_6490"
    INDEX 01 00:48:38
  TRACK 59 AUDIO
    TITLE "0:"
    INDEX 01 00:49:35
  TRACK 60 AUDIO
    TITLE "16:cjc020_6491"
    INDEX 01 00:49:39
  TRACK 61 AUDIO
    TITLE "0:"
    INDEX 01 00:50:52
  TRACK 62 AUDIO
    TITLE "17:cjc020_6492"
    INDEX 01 00:51:34
  TRACK 63 AUDIO
    TITLE "0:"
    INDEX 01 00:52:30
  TRACK 64 AUDIO
    TITLE "16:cjc020_6493"
    INDEX 01 00:52:39
  TRACK 65 AUDIO
    TITLE "0:"
    INDEX 01 00:53:35
